# xmcd
# 
# Track frame offsets:
#     150
#     40248
#     67603
#     95086
#     138512
#     185326
#     228740
# 
# Disc length: 3064
# 
# Revision: 0
# Processed by: cddbd v1.5.2PL0 Copyright (c) Steve Scherf et al.
# Submitted via: fre:ac v1.0.17
# 
DISCID=5b0bf607
DTITLE=Brian Tracy - Christina Tracy Stein - Kiss That Frog
DYEAR=2012
DGENRE=AudioBook
TTITLE0=301
TTITLE1=302
TTITLE2=303
TTITLE3=304
TTITLE4=305
TTITLE5=306
TTITLE6=307
EXTD=
EXTT0=
EXTT1=
EXTT2=
EXTT3=
EXTT4=
EXTT5=
EXTT6=
PLAYORDER=
